<svg viewBox="0 0 1024 1024" xmlns="http://www.w3.org/2000/svg">
  <path d="M404.88 275.83H288.07c-11.83 0-17.98 14.99-9.97 24.29 8.26 9.6 16.76 22.07 22.94 37.47 4.59 11.45 11.77 21.67 21.7 28.2 14.75 9.7 39.65 19.09 78.1 13.91l4.04-103.87z" fill="#BFC29F"/>
  <path d="M403.86 302.12H357.4c-5.54 0-8.67 7.23-5.3 12.26 7.96 11.92 23.64 28.62 50.06 31.47l1.7-43.73z" fill="#9B9B6E"/>
  <path d="M684.94 422.14l3.89 53.53-478.95 34.79v-88.32h475.06zM688.83 475.67l0.94 13.04-479.89 34.86v-13.11l478.95-34.79z" fill="#BFC29F"/>
  <path d="M689.77 488.71l0.95 13.03-480.84 34.93v-13.1l479.89-34.86z" fill="#BEC19E"/>
  <path d="M690.72 501.74l0.95 13.04-481.79 34.99v-13.1l480.84-34.93z" fill="#BEC09D"/>
  <path d="M691.67 514.78l0.94 13.03-482.73 35.07v-13.11l481.79-34.99z" fill="#BDC09C"/>
  <path d="M692.61 527.81l0.95 13.04-483.68 35.13v-13.1l482.73-35.07z" fill="#BCBF9B"/>
  <path d="M693.56 540.85l0.95 13.03-484.63 35.21v-13.11l483.68-35.13z" fill="#BBBE9A"/>
  <path d="M694.51 553.88l0.95 13.04-485.58 35.27v-13.1l484.63-35.21z" fill="#BBBD99"/>
  <path d="M695.46 566.92l0.94 13.04-486.52 35.34v-13.11l485.58-35.27z" fill="#BABC98"/>
  <path d="M696.4 579.96l0.95 13.03-487.47 35.41v-13.1l486.52-35.34z" fill="#B9BC97"/>
  <path d="M697.35 592.99l0.95 13.04-488.42 35.47v-13.1l487.47-35.41z" fill="#B8BB96"/>
  <path d="M698.3 606.03l0.94 13.03-489.36 35.55V641.5l488.42-35.47z" fill="#B8BA95"/>
  <path d="M699.24 619.06l0.85 11.72v1.32l-490.21 35.61v-13.1l489.36-35.55z" fill="#B7B994"/>
  <path d="M700.09 645.21l-489.42 35.55-0.79-10.85v-2.2l490.21-35.61v13.11z" fill="#B6B893"/>
  <path d="M700.09 658.31L211.62 693.8l-0.95-13.04 489.42-35.55v13.1z" fill="#B5B792"/>
  <path d="M700.09 671.42l-487.53 35.41-0.94-13.03 488.47-35.49v13.11z" fill="#B5B791"/>
  <path d="M700.09 684.52l-486.58 35.35-0.95-13.04 487.53-35.41v13.1z" fill="#B4B690"/>
  <path d="M700.09 697.63L214.46 732.9l-0.95-13.03 486.58-35.35v13.11z" fill="#B3B58F"/>
  <path d="M700.09 710.73L215.4 745.94l-0.94-13.04 485.63-35.27v13.1z" fill="#B2B48E"/>
  <path d="M700.09 723.83l-483.74 35.14-0.95-13.03 484.69-35.21v13.1z" fill="#B2B38D"/>
  <path d="M700.09 736.94L217.3 772.01l-0.95-13.04 483.74-35.14v13.11z" fill="#B1B38C"/>
  <path d="M700.09 750.04l-481.85 35-0.94-13.03 482.79-35.07v13.1z" fill="#B0B28B"/>
  <path d="M700.09 763.15l-480.9 34.93-0.95-13.04 481.85-35v13.11z" fill="#AFB18A"/>
  <path d="M700.09 776.25l-479.95 34.86-0.95-13.03 480.9-34.93v13.1z" fill="#AFB089"/>
  <path d="M700.09 789.36l-479 34.79-0.95-13.04 479.95-34.86v13.11z" fill="#AEAF88"/>
  <path d="M700.09 802.46l-478.06 34.73-0.94-13.04 479-34.79v13.1z" fill="#ADAF87"/>
  <path d="M700.09 815.56l-477.11 34.66-0.95-13.03 478.06-34.73v13.1z" fill="#ACAE85"/>
  <path d="M700.09 828.67l-476.16 34.59-0.95-13.04 477.11-34.66v13.11z" fill="#ACAD84"/>
  <path d="M700.09 841.77l-475.22 34.52-0.94-13.03 476.16-34.59v13.1z" fill="#ABAC83"/>
  <path d="M700.09 854.88l-474.27 34.45-0.95-13.04 475.22-34.52v13.11z" fill="#AAAB82"/>
  <path d="M700.09 867.98L394.18 890.2h-168.3l-0.06-0.87 474.27-34.45v13.1z" fill="#A9AA81"/>
  <path d="M700.09 881.09l-125.51 9.11h-180.4l305.91-22.22v13.11z" fill="#A9AA80"/>
  <path d="M574.58 890.2l125.51-9.11v9.11H574.58z" fill="#A8A97F"/>
  <path d="M366.19 505.85l-6.25 23.3c104.53 80.18 148.52 263.24 162.65 338.59 1.12-0.2 2.2-0.36 3.33-0.58 16.73-3.19 32.88-8.63 48.1-15.95-37.39-250.74-207.83-345.35-207.83-345.35z" fill="#9B9B6E"/>
  <path d="M654.32 625.37l38.55 19.38c-0.84-1.19-1.72-2.34-2.71-3.42a721.272 721.272 0 0 0-34.04-34.83l-0.01-0.01a629.638 629.638 0 0 0-19.01-17.41c-21.09-18.54-45.38-37.17-69.59-49.75L396.93 422.14v0.01c-7.93 21.49 4.1 54.93 22.07 83.7 12.73 20.37 41.3 43.35 63.78 51.82l147.46 55.6-25.17 88.78 18.78 114.59c15.32-14.87 31.71-34.25 45.41-58.31-6.68-30.23-29.12-61.76-29.12-61.76 7.79-26.11 11.95-51.8 14.19-71.19z" fill="#9B9B6E"/>
  <path d="M671.58 97.18l2.11 35.3-288.88 17.3v-52.6h286.77z" fill="#BFC29F"/>
  <path d="M673.69 132.48l1.49 24.78-290.37 17.39v-24.87l288.88-17.3z" fill="#BFC29F"/>
  <path d="M675.18 157.26l1.48 24.78-291.85 17.47v-24.86l290.37-17.39z" fill="#BEC19E"/>
  <path d="M676.66 182.04l1.48 24.78-293.33 17.56v-24.87l291.85-17.47z" fill="#BEC09D"/>
  <path d="M678.14 206.82l1.49 24.77-294.82 17.65v-24.86l293.33-17.56z" fill="#BDC09C"/>
  <path d="M679.63 231.59l1.48 24.78-296.3 17.74v-24.87l294.82-17.65z" fill="#BCBF9B"/>
  <path d="M681.11 256.37l1.48 24.78-297.78 17.83v-24.87l296.3-17.74z" fill="#BBBE9A"/>
  <path d="M682.59 281.15l1.49 24.77-299.27 17.92v-24.86l297.78-17.83z" fill="#BBBD99"/>
  <path d="M684.08 305.92l0.84 14.12v10.7l-300.11 17.97v-24.87l299.27-17.92z" fill="#BABC98"/>
  <path d="M684.92 355.6l-300.11 17.97v-24.86l300.11-17.97v24.86z" fill="#B9BC97"/>
  <path d="M684.92 380.47l-300.11 17.97v-24.87l300.11-17.97v24.87z" fill="#B8BB96"/>
  <path d="M684.92 405.34L384.81 423.3v-24.86l300.11-17.97v24.87z" fill="#B8BA95"/>
  <path d="M684.92 430.2l-300.11 17.97V423.3l300.11-17.96v24.86z" fill="#B7B994"/>
  <path d="M684.92 455.07l-300.11 17.97v-24.87l300.11-17.97v24.87z" fill="#B6B893"/>
  <path d="M684.92 479.93L384.81 497.9v-24.86l300.11-17.97v24.86z" fill="#B5B792"/>
  <path d="M684.92 504.8l-299.6 17.94-0.51-8.54v-16.3l300.11-17.97v24.87z" fill="#B5B791"/>
  <path d="M684.92 529.67l-261.91 15.68h-36.33l-1.36-22.61 299.6-17.94v24.87z" fill="#B4B690"/>
  <path d="M423.01 545.35l261.91-15.68v15.68H423.01z" fill="#B3B58F"/>
  <path d="M469.85 288.83h51c4.78 0 8.28 4.54 6.97 9.13-2.26 7.94-7.52 18.93-19.62 23.87-8.64 3.53-18.6 2.8-26.87-1.52-6.52-3.41-14.1-9.58-18.86-20.67-2.2-5.12 1.81-10.81 7.38-10.81z" fill="#FCFAFF"/>
  <path d="M552.48 349.94m-8.79 0a8.79 8.79 0 1 0 17.58 0 8.79 8.79 0 1 0-17.58 0Z" fill="#9B9B6E"/>
  <path d="M582.37 349.94m-8.79 0a8.79 8.79 0 1 0 17.58 0 8.79 8.79 0 1 0-17.58 0Z" fill="#9B9B6E"/>
  <path d="M507.99 273.01h-38.25c-3.4 0-6.15-2.76-6.15-6.15v-90.79a8.13 8.13 0 0 1 8.13-8.13c3.46 0 6.53 2.16 7.66 5.43 3.49 10.07 12.38 31.76 27.77 44.32 4.26 3.48 7 8.48 7 13.98v35.19c0 3.4-2.75 6.16-6.16 6.16zM473.7 339.39h24.47a8.5 8.5 0 0 1 8.5 8.5 8.44 8.44 0 0 1-3.22 6.66c-5.79 4.57-17.87 15.17-23.38 28.08-1.12 2.61-3.74 4.24-6.58 4.24a7.27 7.27 0 0 1-7.27-7.27v-32.74c0-4.13 3.35-7.48 7.47-7.48z" fill="#C9519C"/>
  <path d="M544.94 262.08l12.1 12.02a5.942 5.942 0 0 0 8.44-0.06l11.8-12.05c1.93-1.97 0.17-5.26-2.54-4.73l-8.6 2.95a15.666 15.666 0 0 1-10.1 0.02l-8.59-2.91c-2.73-0.53-4.48 2.8-2.51 4.76z" fill="#9B9B6E"/>
  <path d="M664.18 286.56h82.31c8.33 0 12.67 11.94 7.02 19.34a109.807 109.807 0 0 0-16.16 29.84c-3.24 9.12-8.29 17.26-15.29 22.46-10.4 7.72-27.94 15.2-55.04 11.08l-2.84-82.72z" fill="#7F7D56"/>
  <path d="M570.18 545.35h11.02c57.29 0 103.73-46.44 103.73-103.73v-8.94c0-5.53-2.25-10.51-5.85-14.16h-47.74c1.86 28.3-0.43 96.93-61.15 126.83z" fill="#9B9B6E"/>
  <path d="M679.07 418.52c-1.79-1.82-3.88-3.34-6.25-4.39 0.39-4.32 0.62-8.68 0.62-13.1V241.49c0-60.96-37.81-113.05-91.24-134.2 17.09 23.42 41.27 77.22 41.25 194.15h-32.28c1.37 25.76 19.36 32.75 31.61 34.53-0.93 24.97-2.86 52.38-6.06 82.55h62.36z" fill="#9B9B6E"/>
  <path d="M641.84 288.83h-51c-4.78 0-8.28 4.54-6.97 9.13 2.26 7.94 7.52 18.93 19.63 23.87 8.63 3.53 18.6 2.8 26.87-1.52 6.52-3.41 14.1-9.58 18.86-20.67 2.2-5.12-1.8-10.81-7.38-10.81zM500.07 418.52s1.62-21.44 13.81-41.71c3.03-5.04 10.29-5.19 13.35-0.17 5.95 9.76 13.89 25.73 14.16 41.88h-41.32zM608.51 418.52s1.62-21.44 13.81-41.71c3.03-5.04 10.29-5.19 13.35-0.17 5.95 9.76 13.89 25.73 14.16 41.88h-41.32z" fill="#FCFAFF"/>
  <path d="M324.83 534.77c28.53 23.51 103.5 92.65 130.77 189.46l39.39-34.7s-21.2-95.36-128.79-183.68c-6.98-5.73-16.96-6.06-24.23-0.72l-16.67 12.25c-5.8 4.26-6.02 12.81-0.47 17.39zM612.6 565.63c-1.49 21.54-7.21 71.97-29.01 121.41l33.12 23.13s33.16-64.38 31.13-119.63c-0.24-6.55-3.49-12.62-8.75-16.52l-17.15-12.69c-3.73-2.76-9.02-0.33-9.34 4.3z" fill="#B77D85"/>
  <path d="M455.59 724.22l39.39-34.7s-2.82-12.58-11.5-32.77c-16.13 10.21-29.83 23.13-39.68 33.74 4.5 10.83 8.51 22.07 11.8 33.73zM595.37 655.75c-3.29 10.29-7.15 20.81-11.78 31.3l33.12 23.13s6.32-12.28 13.28-30.71c-10.99-12.39-24.85-19.75-34.62-23.72z" fill="#9D5D65"/>
  <path d="M438.1 892.42c54.84 4.82 171.33 3.87 220.16-81.88 3.6-6.33 4.99-13.67 4-20.89-2.14-15.62-8.58-45.4-27.76-74.74-36.99-56.6-117.58-61.82-165.09-13.71-28.83 29.19-59.44 78.67-61.38 157.96-0.42 17.24 12.89 31.75 30.07 33.26z" fill="#C4D5FF"/>
  <path d="M610.25 755.48l-14.45 10.74c-1.81 1.34-4.35-0.07-4.16-2.31l2.51-30.64c0.21-2.53-1.02-5.03-3.25-6.23-20.66-11.16-46.76-10.27-67.37 3.24-56.32 36.91-54.56 134.11-52.62 163.7 52 0.4 124.52-9.25 169.22-58.5-2.64-35.58-10.48-60.5-20.26-77.95-1.94-3.45-6.45-4.4-9.62-2.05z" fill="#7E9AEF"/>
  <path d="M471.64 422.14c0 4.42 3.58 8 8 8h205.09c-0.9-7.17-5.53-13.17-11.91-16H479.64c-4.42 0-8 3.58-8 8z" fill="#9B9B6E"/>
</svg>
