<svg viewBox="0 0 1024 1024" xmlns="http://www.w3.org/2000/svg">
  <path d="M399.3 777.3c1.1 4.9 2.4 9.7 4 14 2.5 6.9 2.2 14.4-0.4 21.2-1.9 5-2.9 12.8-0.5 24.9 5.1 25.8 70.8-5.3 58.9-26.4-3.5-6.2-4-13.7-2.2-20.5 2.5-9.5 3.1-22.9-5.7-36.5-14.3-2-28.3-4.7-41.9-8-9.3 6.6-15.2 18.2-12.2 31.3zM550.2 766c-0.2 1-0.4 2-0.5 3-1.1 11-7.1 80.7 25.2 75.6 24.8-3.9 25.5-14.1 23.8-19.7-1-3.2-1.6-6.5-1.5-9.9 0.4-12.7 0.1-42.4-10-62.7-11.3 2.1-22.9 3.7-34.7 4.7-1.1 3.8-1.9 7.1-2.3 9z" fill="#72674E"/>
  <path d="M506 465.1zM617.6 452.7c-0.1 0-0.2 0.1-0.4 0.1l0.4-0.1z" fill="#C7B299"/>
  <path d="M767 418.3c4-25.4 8.4-34.5 12.7-32-4-72.2-24.8-134.9-71.3-161.4-3.4-1.9-6.9-3.8-10.5-5.6 3.6 8.2 5.6 17.2 5.6 26.6 0 36.7-30 66.7-66.7 66.7s-66.7-30-66.7-66.7c0-24.8 13.7-46.5 33.9-57.9-111.3-22.1-244.6-4.3-291.7 78.1-21 36.7-38.9 90.7-49.5 149 16.3-12.9 44.3-5.7 48.5 18.9 6.7 39.3 11.1 83.7 6.5 121.4-11.1 91.1-39 48.4-30.4 95.1 1.2 6.3-1 12.8-5.2 18.2 10.7 18.9 24.6 34.1 42.1 44.1 24.6 14 54.4 25.3 86.8 33.1 13.6 3.3 27.6 6 41.9 8 32.8 4.7 66.7 5.9 99.2 3 11.8-1 23.4-2.6 34.7-4.7 58.1-10.9 108.1-36.5 133.4-80.7 12.3-21.6 23.6-49.2 33-80.2-2.3-82.8 13.7-173 13.7-173zM476.8 203.5c36.7 0 66.7 30 66.7 66.7s-30 66.7-66.7 66.7-66.7-30-66.7-66.7 30-66.7 66.7-66.7z m237.6 210.3c-14 17.7-69.4 38.1-134.6 47.4-8.8 1.5-17.9 2.6-27.4 3.4-1.5 2.4-7 0.5-7 0.5-4.1 0.3-8.3 0.4-12.5 0.5-78.6 3.7-160.5-11.9-197.4-68.4-0.1-0.1-0.2-0.2-0.2-0.4-0.1-0.2-0.3-0.4-0.5-0.7-16.5-25 0-33.7 12.5-36.7 5.9-1.4 12.1-0.9 17.8 1.3 4.4 1.7 10.3 3.8 17.4 6.2 6.4 2.1 12.7 4.1 18.8 6 36.5 11.1 90.3 24.2 142.3 26.7 24.9 1.2 49.4-0.1 71.4-5.2 20.2-4.7 38.2-12.6 52.6-24.8 73.5-63 74.1 18.1 46.8 44.2z" fill="#C7B299"/>
  <path d="M476.8 336.9c36.7 0 66.7-30 66.7-66.7s-30-66.7-66.7-66.7-66.7 30-66.7 66.7 30 66.7 66.7 66.7z m29.2-79.1c8.4 0 15.2 6.8 15.2 15.2 0 8.4-6.8 15.2-15.2 15.2-8.4 0-15.2-6.8-15.2-15.2-0.1-8.4 6.8-15.2 15.2-15.2zM570.3 245.9c0 36.7 30 66.7 66.7 66.7s66.7-30 66.7-66.7c0-9.5-2-18.5-5.6-26.6-10.3-23.5-33.8-40-61.1-40-11.9 0-23.1 3.2-32.8 8.7-20.2 11.5-33.9 33.1-33.9 57.9z m41.2-17.2c0 8.4-6.8 15.2-15.2 15.2-8.4 0-15.2-6.8-15.2-15.2 0-8.4 6.8-15.2 15.2-15.2 8.4 0 15.2 6.8 15.2 15.2z" fill="#F2F2F2"/>
  <path d="M506 273m-15.2 0a15.2 15.2 0 1 0 30.4 0 15.2 15.2 0 1 0-30.4 0Z" fill="#72674E"/>
  <path d="M596.3 228.7m-15.2 0a15.2 15.2 0 1 0 30.4 0 15.2 15.2 0 1 0-30.4 0Z" fill="#72674E"/>
  <path d="M667.4 369.6c-8 60.5-47.7 28.9-52.1 25.2-0.1 0-0.2 0.1-0.4 0.1 0 1.9-2.1 9.7-37.9 17.9-32.7 7.5-34.6-5.2-34-10.8-2.7 13.5-6.3 19.4-58.8 14.1-55.6-5.6-37.8-28.1-37.8-28.1-56.1 46.9-64-21.1-64-21.1-7.1-2.4-13.1-4.5-17.4-6.2-5.7-2.2-11.9-2.7-17.8-1.3-12.4 3-29 11.7-12.5 36.7 0.1-0.4 5.3-18.1 31.7 0 15.9 10.9 16 20.8 13.5 27.1 5.8-6.1 17.8-12.7 39.4-2.1 19.8 9.8 23.2 19.3 22.6 25.6 4-6.3 13.4-13.5 35-7.3 34.6 10 35.4 11.3 29.2 25.6 0-0.1 17.9-40.6 37.5-17.3 2 2.4 3.6 4.4 4.9 6.2 3.9-8.8 12.7-19.6 32.7-19.6 33.7 0 31 19.7 33.8 19 1.4-0.4 2.1-0.6 2.4-0.7 0.1 0 0.2-0.1 0.4-0.1 0 0-10.1-21.7 19.4-25.8 17.5-2.4 24.9 1 28.1 4.2-2.9-6.6-5.1-19.3 15.8-25.2 29-8.1 31.3 0 31.3 0s3.9 5.7 2.3 7.9c27-25.9 26.4-107-47.3-44z" fill="#72674E"/>
  <path d="M543.5 399.7c-52-2.5-105.8-15.6-142.3-26.7 58.6 18 105.3 25.7 142.1 27.4 0.1-0.5 0.2-0.7 0.2-0.7zM667.4 369.6c-14.3 12.2-32.4 20.2-52.6 24.8 0 0 0.2 0.1 0.4 0.4 38.4-9 52.2-25.2 52.2-25.2zM532.8 465.7c4.2-0.1 8.4-0.3 12.5-0.5v-0.2c-4.1 0.2-8.3 0.5-12.5 0.7z" fill="#72674E"/>
  <path d="M614.9 394.9c0-0.3-0.1-0.4-0.1-0.4-22 5.1-46.5 6.4-71.4 5.2 0 0.2-0.1 0.5-0.1 0.7 30 1.3 53.5-1.3 71.6-5.5zM335.4 397.2c-0.1-0.1-0.2-0.2-0.2-0.4 0 0.2 0.1 0.3 0.2 0.4zM552.3 464.6c9.5-0.8 18.7-2 27.4-3.4-8.9 1.3-18.1 2.3-27.3 3.1 0 0.1 0 0.2-0.1 0.3z" fill="#72674E"/>
  <path d="M712.1 406s-2.3-8.1-31.3 0c-20.9 5.9-18.6 18.5-15.8 25.2-3.1-3.2-10.5-6.6-28.1-4.2-29.4 4.1-19.4 25.8-19.4 25.8l-0.4 0.1c-0.4 0.1-1 0.3-2.4 0.7-2.8 0.8-0.1-19-33.8-19-20 0-28.8 10.8-32.7 19.6-1.3-1.8-2.9-3.9-4.9-6.2-19.6-23.3-37.4 17.2-37.5 17.3 6.2-14.4 5.4-15.6-29.2-25.6-21.6-6.3-31 1-35 7.3 0.6-6.3-2.8-15.8-22.6-25.6-21.6-10.7-33.6-4.1-39.4 2.1 2.5-6.2 2.4-16.2-13.5-27.1-26.3-18.1-31.6-0.5-31.7 0 0.1 0.2 0.3 0.4 0.5 0.7 0.1 0.1 0.2 0.2 0.2 0.4 36.9 56.5 118.8 72.1 197.4 68.4 4.2-0.2 8.4-0.5 12.5-0.8v0.2s5.5 1.9 7-0.5c0.1-0.1 0.1-0.2 0.1-0.3 9.2-0.8 18.4-1.9 27.3-3.1C644.6 452.2 700 431.7 714 414c2-2.3-1.9-8-1.9-8z" fill="#EAE8E8"/>
  <path d="M615.2 394.8c4.4 3.7 44.1 35.3 52.1-25.2 0.1 0-13.7 16.2-52.1 25.2z" fill="#F2F4EF"/>
  <path d="M614.9 394.9c0.1 0 0.2-0.1 0.4-0.1-0.3-0.2-0.4-0.4-0.4-0.4-0.1 0.1 0 0.2 0 0.5zM446.4 388s-17.8 22.6 37.8 28.1c52.5 5.3 56.1-0.7 58.8-14.1-0.6 5.6 1.3 18.3 34 10.8 35.8-8.2 37.9-16 37.9-17.9-18.1 4.2-41.5 6.8-71.6 5.5 0-0.2 0.1-0.5 0.1-0.7 0 0-0.1 0.3-0.2 0.7-36.8-1.7-83.5-9.3-142.1-27.4-6.1-1.9-12.4-3.9-18.8-6 0.1 0 8 67.9 64.1 21z" fill="#F2F4EF"/>
  <path d="M287.7 650.4c-8.6-46.7 19.3-4 30.4-95.1 4.6-37.6 0.2-82.1-6.5-121.4-4.2-24.6-32.2-31.7-48.5-18.9-4.4 3.4-7.9 8.3-9.9 14.7-84.8 266.2 5.6 270 29.5 238.9 4-5.3 6.2-11.8 5-18.2zM779.8 386.4c-4.3-2.5-8.7 6.6-12.7 32 0 0-16 90.2-13.4 173.1 1.5 46.1 8.7 90 27.7 114.8 44.8 58.8 22.2-306.2-1.6-319.9z" fill="#72674E"/>
</svg>
