<svg viewBox="0 0 1024 1024" xmlns="http://www.w3.org/2000/svg">
  <path d="M216.514089 716.608707s56.457727 133.698853 15.41668 297.883262h229.005644l62.653518-211.724565-307.075842-86.158697z" fill="#FFC4C4"/>
  <path d="M199.285585 533.290953c-41.534445-42.444401-68.00406-92.997524-84.350918-144.897381C96.929667 331.232145 91.215142 272.440886 91.215142 221.026339l100.471298-15.016299c37.360779 73.532549 85.928175 138.438714 152.278137 183.151939l-144.678992 144.128974z" fill="#569F7C"/>
  <path d="M762.111694 767.582431l-0.020221 0.004044c14.745335-31.710963 22.566914-71.530646 22.566914-121.420511 0-160.928787-120.906891-291.388197-270.046691-291.388196s-320.745406 130.459409-320.745406 291.388196c0 94.922587 112.729418 165.656515 193.986485 203.915118h-0.004044l0.008088 0.004045a330.374765 330.374765 0 0 0 29.741413 12.258121c41.781144 18.271921 115.301561 54.55693 138.062599 92.496037l32.410618 54.006911 247.30183-22.736772c-49.020352-53.141442-53.064601-134.026438-73.589169-200.416842-2.252647-10.506961-3.643869-16.828123 0.327584-18.110151z" fill="#FFC4C4"/>
  <path d="M199.285585 533.290953c-41.534445-42.444401-68.00406-92.997524-84.350918-144.897381C96.929667 331.232145 91.215142 272.440886 91.215142 221.026339l100.471298-15.016299c37.360779 73.532549 85.928175 138.438714 152.278137 183.151939l-144.678992 144.128974z" fill="#569F7C" opacity=".14"/>
  <path d="M232.792194 1010.908763s307.249744-31.868688 153.624873-136.392323c0 0 102.537909 22.380878 95.561578 68.861441l-23.189729 72.197947-225.996722-4.667065z" fill="#D1A1A1"/>
  <path d="M246.029024 861.866026s34.533849 51.317485 102.190103 44.430128c67.65221-6.891402-30.352095 84.403493-102.125395 104.891663 0 0 194.475839 5.140241 185.71195-92.338311s-184.919277-97.640322-213.115787-196.643557c-0.004044-0.004044 27.965987 70.790548 27.339129 139.660077z" fill="#EDB6B6"/>
  <path d="M572.545574 982.97513s-78.59595-127.094594 46.634244-149.475472c125.230194-22.384923 197.157177 127.244231 197.157177 127.244231s-35.387186-74.668984-56.25147-183.507834c-8.06019-42.052109-566.13835-126.726567-566.13835-126.726566s1.916974 123.406238 189.994811 198.338097c154.356881 61.492818 188.603588 134.127544 188.603588 134.127544z" fill="#D1A1A1"/>
  <path d="M929.923794 280.800351l-126.475823-16.06376c-15.614848 46.848589-21.40217 53.319389-47.637218 92.993479 0.044487-17.272991-4.788392 18.749142 0 0L285.43215 332.336226s-147.594896 108.859071-115.184278 273.055612c0 0 49.788759 221.851366 571.65875 174.323343 0 0 109.615346-0.101106 88.726796-137.581334-16.759371-127.22401 89.329389-140.351644 99.290376-361.333496z" fill="#569F7C"/>
  <path d="M197.356478 654.933898s118.589536 131.187374 292.411392 158.344511c129.415993 20.221249 242.379978-50.553122 281.948917 16.177l-12.864758-51.944345-561.495551-122.577166z" fill="#B88D8D"/>
  <path d="M208.494342 418.211825s18.397292 219.145763 202.410657 219.145763 281.07536 6.066375 281.07536-78.86287c0-84.93329 222.894782-149.641286 222.894782-250.747531 0 0-8.549544 82.90712-79.323915 190.07974-70.774371 107.176663-50.553122 250.747531-184.013365 250.74753s-550.818732 2.535745-443.043519-330.362632z" fill="#519674"/>
  <path d="M929.923794 280.800351l-17.313433-2.196028c7.506128 86.514591-40.592135 156.799608-107.391009 196.983274-31.8606 36.871425-71.166663 41.874162-65.140731 94.825525l0.080885 0.736053 0.020222 0.21839c19.092903 137.472139-81.083164 137.581333-81.083164 137.581333-402.758747 40.143223-450.278682-111.847772-455.321862-160.083539-0.994885-8.844774-0.420602-14.239803-0.420602-14.239804-7.73665-42.897357-4.23433-82.009297 5.14833-116.401597-29.660528 46.986094-53.258725 111.140028-38.254558 187.175969 0 0 49.788759 221.851366 571.65875 174.323342 0 0 109.615346-0.101106 88.726796-137.581333-16.759371-127.232098 89.329389-140.359733 99.290376-361.341585z" fill="#4C8C6D"/>
  <path d="M749.073033 329.056339c23.307011 148.796038-134.673518 253.74432-255.026347 241.538774-188.741093-19.145478-289.738143-84.985865-262.427324-263.139112C254.117523 160.64569 360.493425 59.652684 494.046686 59.652684c133.545172-0.012133 232.050964 122.678273 255.026347 269.403655z" fill="#4C8C6D" opacity=".34"/>
  <path d="M943.294084 266.750627c-5.645773-22.765082-30.586661-42.650658-63.037721-47.843475-39.823728-6.361605-75.825639 11.821342-80.440128 40.628533a33.769486 33.769486 0 0 0-0.420602 5.20495 55.960284 55.960284 0 0 0-1.419532 6.304985c-3.312241 20.75509 5.581065 39.43548 19.873444 41.716437 10.729395 1.714762 27.808261-5.249436 33.898901-18.114195 2.082789 0.347805-2.163674-0.339717 0 0 1.771381 14.114432 9.463544 25.046039 20.168674 26.760801 8.945881 1.431664 17.883673-3.894613 24.132038-13.164033 3.053409 10.75366 9.888191 18.603549 18.821939 20.031169 14.288334 2.280957 28.572625-12.682767 31.901042-33.445946 1.690496-10.515049 0.222434-20.492214-3.478055-28.079226zM297.399085 225.535677c0.94231 42.711322-6.980375 77.249215-26.364465 77.673862-9.645536 0.214345-0.51362-26.433217-19.129301-48.21959-15.999052-18.720832-23.501135-73.896532-23.970269-95.355322-0.938266-42.707278 23.262525-63.34104 29.765679-20.989656 4.66302 30.287387 38.756046 44.183429 39.698356 86.890706z" fill="#FFC4C4"/>
  <path d="M751.095158 294.680216c23.307011 148.796038-134.673518 253.74432-255.026347 241.538774-188.741093-19.145478-289.738143-84.985865-262.427324-263.139112C256.143693 126.261478 362.519595 25.268473 496.068811 25.268473c133.545172-0.004044 232.050964 122.686361 255.026347 269.411743z" fill="#E8B3B3"/>
  <path d="M696.744485 266.73445c20.035213 131.498782-115.774738 224.249606-219.242825 213.463592-162.259345-16.92923-249.0813-75.105763-225.60443-232.556495C271.240877 117.893925 362.693497 28.637333 477.50166 28.637333s199.490709 108.430381 219.242825 238.097117z" fill="#F0B8B8"/>
  <path d="M651.537861 194.504149c16.156778 125.371743-108.717523 209.002784-192.15444 200.295515-130.847657-13.649343-200.865754-60.566685-181.930576-187.539951 15.598671-104.624742 89.345566-176.600255 181.930576-176.600255 92.580966 0 177.999566 59.284658 192.15444 163.844691z" fill="#FFC4C4"/>
  <path d="M337.117662 114.508888c-13.467352 12.731298-20.872373 30.307608-20.852152 49.461175 0.068752 38.561922 24.099684 39.936967 63.927456 42.213879l1.435709 0.08493c31.585591 1.803735 50.593565-2.04639 61.646499-12.492688 7.502083-7.093614 11.149997-17.018203 11.137864-30.335918-0.072796-38.966347-25.337225-64.610934-65.945537-66.932334-19.659098-1.112169-37.898665 5.277746-51.349839 18.000956zM504.929762 125.371743c-13.463308 12.735343-20.868329 30.307608-20.844063 49.465219 0.064708 38.561922 24.099684 39.936967 63.935544 42.213879l1.431665 0.08493c34.469141 1.96955 57.480922-2.968479 70.341636-15.125494 7.514216-7.109791 11.331988-16.694663 11.319855-28.49174-0.064708-36.430602-30.821228-63.620093-74.814576-66.139661-19.679319-1.124301-37.918886 5.269657-51.370061 17.992867z" fill="#FFFFFF"/>
  <path d="M690.285818 215.590867s30.388493 41.077445 54.128239 46.254085c0 0-7.623411-34.376123-14.138697-49.760449l-39.989542 3.506364z" fill="#DBA9A9"/>
  <path d="M751.301414 178.529362c0 27.84466-22.425365 50.415618-37.959328 50.415618-15.525875 0-45.182359-28.40681-28.119669-50.415618 21.59225-27.848704 9.4595-72.141328 41.08149-72.141327 15.533963-0.004044 24.997508 44.292624 24.997507 72.141327z" fill="#E8B3B3"/>
  <path d="M547.455049 433.636594c-7.166411 47.079112-50.743202 42.124906-117.683625 31.258007-66.948511-10.866899-131.159065-33.482344-122.69445-89.050336 12.42798-81.701934 74.733692-120.692546 141.682203-109.825647 66.944467 10.874988 111.123851 85.920087 98.695872 167.617976z" fill="#FFC4C4"/>
  <path d="M544.559366 416.78825c-6.976331 44.333066-49.335803 39.670046-114.423959 29.434049-65.096244-10.227908-127.523284-31.528971-119.29728-83.84943C322.926389 285.435061 383.505207 248.721361 448.597407 258.953313c65.0922 10.235996 108.054266 80.901173 95.961959 157.834937z" fill="#801F1F"/>
  <path d="M319.573706 390.468272l36.325452-27.767819c8.836686-6.753897 15.946477-3.182825 15.808972 7.938862l-0.521708 41.732614c-0.137504 11.121687-8.958013 17.572265-19.598435 14.324733 0.004044 0-42.88118-13.066971-32.014281-36.22839zM478.067855 451.039001l15.736176-57.755931c2.928037-10.729395 10.891165-12.322829 17.705725-3.53063l24.876181 32.087078c6.818605 8.788155 4.683241 16.779592-4.723684 22.704418 0-0.004044-17.689549 12.783874-53.594398 6.495065z" fill="#FFFFFF"/>
  <path d="M542.343117 152.710872m-18.874514 0a18.874514 18.874514 0 1 0 37.749028 0 18.874514 18.874514 0 1 0-37.749028 0Z"/>
  <path d="M371.137891 150.021446m-18.874514 0a18.874514 18.874514 0 1 0 37.749028 0 18.874514 18.874514 0 1 0-37.749028 0Z"/>
</svg>
